<svg xmlns="http://www.w3.org/2000/svg" viewBox="0 0 875 877.11"><defs><style>.cls-1{fill:#3f464c;}.cls-2{fill:#f4f4f4;}.cls-3{fill:#fff;}.cls-4{fill:#f2f2f2;}.cls-5{fill:#dcdee0;}.cls-6{fill:#f9f9f9;}.cls-7{fill:#ff7f66;}</style></defs><title>logo-cube-black</title><g id="Layer_2" data-name="Layer 2"><g id="Layer_1-2" data-name="Layer 1"><rect class="cls-1" y="1.05" width="875" height="875"/></g><g id="Layer_5" data-name="Layer 5"><polygon class="cls-2" points="815.5 657.65 439.7 435.98 815.5 219.46 815.5 657.65"/><polygon class="cls-2" points="439.7 435.98 438.96 584.25 438.97 584.25 563.01 510.12 687.79 583.51 438.25 726.94 437.5 877.11 815.5 657.65 439.7 435.98"/><polygon class="cls-3" points="439.7 435.98 312.72 510.01 312.72 510.12 438.96 584.25 439.7 435.98"/><polygon class="cls-3" points="437.5 727.38 185.75 584.25 185.75 584.04 59.5 657.65 437.5 877.11 438.25 726.94 437.5 727.38"/><polygon class="cls-4" points="189.41 292.86 189.56 292.77 60.23 218.73 59.5 657.65 185.75 584.04 189.41 292.86"/><polygon class="cls-4" points="439.7 435.98 314.19 364.13 312.72 510.01 439.7 435.98"/><polygon class="cls-5" points="438.97 147.53 439.22 147.68 438.97 0 60.23 218.73 189.56 292.77 438.97 147.53"/><polygon class="cls-5" points="314.19 364.13 439.7 435.98 439.46 294.46 314.19 364.05 314.19 364.13"/><polygon class="cls-6" points="686.32 291.39 565.21 363.32 439.7 294.33 439.46 294.46 439.7 435.98 815.5 219.46 438.97 0 439.22 147.68 686.32 291.39"/><polygon class="cls-7" points="767.37 246.95 758.93 241.86 439.7 435.98 117.66 244.98 111.06 248.96 110.94 259.09 432.92 450.06 431.03 838.13 439.7 843.21 447.51 838.56 449.4 452.07 767.43 258.67 767.37 246.95"/></g></g></svg>