<svg id="Layer_1" data-name="Layer 1" xmlns="http://www.w3.org/2000/svg" viewBox="0 0 325.23 390.48"><defs><style>.cls-1{fill:#231f20;}.cls-2{fill:#fff;}.cls-3{fill:none;stroke:#f37544;stroke-linecap:round;stroke-miterlimit:10;stroke-width:8px;}</style></defs><title>logo2</title><polygon class="cls-1" points="325.23 292.81 162.68 390.48 0.06 292.91 0 97.67 162.55 0 325.17 97.57 325.23 292.81"/><polygon class="cls-2" points="295.61 271.97 162.66 348.78 29.66 272.05 29.62 118.51 162.56 41.69 295.56 118.42 295.61 271.97"/><polygon class="cls-1" points="219.04 230.59 162.65 263.17 103.81 229.22 103.78 161.29 162.6 127.31 221.44 161.25 221.53 161.25 258.15 140.1 258.15 140.05 162.59 84.92 67.06 140.11 67.1 250.43 162.66 305.56 258.16 250.38 223.85 230.59 219.04 230.59"/><polygon class="cls-1" points="219.04 230.59 162.65 263.17 103.81 229.22 103.78 161.29 162.6 127.31 221.44 161.25 221.53 161.25 258.15 140.1 258.15 140.05 162.59 84.92 67.06 140.11 67.1 250.43 162.66 305.56 258.16 250.38 223.85 230.59 219.04 230.59"/><line class="cls-3" x1="46.53" y1="127.79" x2="166" y2="193.29"/><line class="cls-3" x1="277.15" y1="129.06" x2="166" y2="193.29"/><line class="cls-3" x1="166" y1="193.29" x2="163.12" y2="327.56"/></svg>