<svg id="Layer_1" data-name="Layer 1" xmlns="http://www.w3.org/2000/svg" viewBox="0 0 320.21 320.21"><defs><style>.cls-1{fill:#231f20;}.cls-2{fill:#fff;}.cls-3,.cls-4{fill:none;}.cls-4{stroke:#f37544;stroke-linecap:round;stroke-miterlimit:10;stroke-width:8px;}</style></defs><title>logo</title><rect class="cls-1" width="320.21" height="320.21"/><polygon class="cls-2" points="293.1 237.34 160.15 314.16 27.16 237.43 27.11 83.89 160.06 7.07 293.05 83.8 293.1 237.34"/><polygon class="cls-3" points="293.1 237.34 160.15 314.16 27.16 237.43 27.11 83.89 160.06 7.07 293.05 83.8 293.1 237.34"/><polygon class="cls-1" points="216.53 195.96 160.14 228.55 101.3 194.6 101.27 126.67 160.09 92.69 218.93 126.63 219.02 126.63 255.64 105.47 255.64 105.42 160.08 50.29 64.56 105.48 64.59 215.81 160.15 270.94 255.65 215.76 221.34 195.96 216.53 195.96"/><line class="cls-4" x1="44.02" y1="93.16" x2="163.48" y2="158.67"/><line class="cls-4" x1="274.64" y1="94.44" x2="163.48" y2="158.67"/><line class="cls-4" x1="163.48" y1="158.67" x2="160.61" y2="292.94"/></svg>